<svg style="position: absolute; width: 0; height: 0; overflow: hidden;" aria-hidden="true" version="1.1" xmlns="http://www.w3.org/2000/svg" xmlns:xlink="http://www.w3.org/1999/xlink">
    <style>
        .default-palette, .palette0 {color: currentColor;
            --color0: #f4f4f4;
            --color1: #eea10c;
            --color2: #242424;
        }
    </style>
    <defs>
        <symbol id="yourenergy" viewBox="0 0 132 14" fill="currentColor">
            <path d="M4.98 8.28 0 0h2.98l3.34 5.74h0.04L9.7 0h2.98L7.7 8.28V14H4.98z" />
            <path d="M12.6703 11.7V2.3l2.3-2.3h7.2l2.3 2.3v9.4l-2.3 2.3h-7.2zM20.7303 11.68l1.02-1.02V3.34l-1.02-1.02h-4.32l-1.02 1.02v7.32l1.02 1.02z" />
            <path d="M26.3742 11.6V0h2.72v10.66l1.02 1.02h3.92l1.02-1.02V0h2.72v11.6l-2.4 2.4h-6.6z" />
            <path d="M50.8781 9.36V14h-2.72V9.98l-1.2-1.34h-4.36V14h-2.72V0h8.78l2.14 2.16V6.4l-1.36 1.38zM42.5981 6.4h4.82l0.7-0.7V2.98l-0.7-0.7h-4.82z" />
            <path d="M57.8234 0h10.12v2.3h-7.4v3.54h6.82V8.1h-6.82v3.6h7.4V14h-10.12z" />
            <path d="M69.4523 0h2.44l6.24 9.5h0.04V0h2.62v14h-2.44l-6.24-9.48h-0.04V14h-2.62z" />
            <path d="M82.8977 0h10.12v2.3h-7.4v3.54h6.82V8.1h-6.82v3.6h7.4V14h-10.12z" />
            <path d="M105.527 9.36V14h-2.72V9.98l-1.2-1.34h-4.3604V14h-2.72V0h8.7804l2.14 2.16V6.4l-1.36 1.38zM97.2466 6.4h4.8204l0.7-0.7V2.98l-0.7-0.7h-4.8204z" />
            <path d="M107.323 11.7V2.3l2.3-2.3h6.96l2.26 2.26V4.4h-2.72V3.26l-0.94-0.94h-4.12l-1.02 1.02v7.32l1.02 1.02h4.16l0.98-0.98V8.52h-3V6.2h5.64v5.5l-2.3 2.3h-6.92z" />
            <path d="M123.828 8.28 118.848 0h2.98l3.34 5.74h0.04l3.34-5.74h2.98l-4.98 8.28V14h-2.72z" />
        </symbol>
        <symbol id="trash" viewBox="0 0 20 20" fill="none">
            <path stroke-width="1.5" stroke="currentColor" stroke-linecap="round" stroke-linejoin="round" d="M13.3333 5V4.3333c0-0.9334 0-1.4001-0.1816-1.7567-0.1598-0.3136-0.4148-0.5685-0.7284-0.7283-0.3565-0.1817-0.8232-0.1817-1.7566-0.1817l-1.3334 0c-0.9334 0-1.4001 0-1.7566 0.1817C7.2631 2.0081 7.0081 2.263 6.8483 2.5766 6.6667 2.9332 6.6667 3.3999 6.6667 4.3333l0 0.6667M8.3333 9.5833l0 4.1667M11.6667 9.5833V13.75M2.5 5l15 0M15.8333 5v9.3333c0 1.4001 0 2.1002-0.2725 2.635-0.2396 0.4704-0.6221 0.8528-1.0925 1.0925-0.5348 0.2725-1.2348 0.2725-2.635 0.2725H8.1667c-1.4002 0-2.1002 0-2.635-0.2725-0.4704-0.2397-0.8529-0.6221-1.0926-1.0925-0.2725-0.5348-0.2725-1.2349-0.2725-2.635l0-9.3333" />
        </symbol>
        <symbol id="trash_hover" viewBox="0 0 20 20" fill="none">
            <path stroke-width="1.5" stroke="var(--color0, #f4f4f4)" stroke-linecap="round" stroke-linejoin="round" d="M13.3333 5V4.3333c0-0.9334 0-1.4001-0.1816-1.7567-0.1598-0.3136-0.4148-0.5685-0.7284-0.7283-0.3565-0.1817-0.8232-0.1817-1.7566-0.1817l-1.3334 0c-0.9334 0-1.4001 0-1.7566 0.1817C7.2631 2.0081 7.0081 2.263 6.8483 2.5766 6.6667 2.9332 6.6667 3.3999 6.6667 4.3333l0 0.6667M8.3333 9.5833l0 4.1667M11.6667 9.5833V13.75M2.5 5l15 0M15.8333 5v9.3333c0 1.4001 0 2.1002-0.2725 2.635-0.2396 0.4704-0.6221 0.8528-1.0925 1.0925-0.5348 0.2725-1.2348 0.2725-2.635 0.2725H8.1667c-1.4002 0-2.1002 0-2.635-0.2725-0.4704-0.2397-0.8529-0.6221-1.0926-1.0925-0.2725-0.5348-0.2725-1.2349-0.2725-2.635l0-9.3333" />
        </symbol>
        <symbol id="sun" viewBox="0 0 60 60" fill="none">
            <path fill="currentColor" clip-rule="evenodd" d="M26.7271 25.3227l0.6812 0.6983-8.3735-23.9952 9.5941 22.4762 0.3832 0.8977 0.033-0.975L29.872 0l0.8269 24.4242 0.0331 0.9755 0.383-0.8973 9.5943-22.4766-8.052 23.0736-0.3216 0.9216 0.6813-0.6983 17.0659-17.493-15.8434 18.6068-0.6328 0.7432 23.1202-10.5519-21.495 11.6271-0.8585 0.4644 0.9739-0.0571 24.3967-1.4303-25.2119 3.1999 24.1947 7.7781-23.7181-5.8886-0.9473-0.2352 0.7582 0.6139 18.9929 15.379-19.9892-14.0589-0.7984-0.5615 0.4852 0.8463 12.1549 21.2016L32.1043 35.176l-0.5417-0.812 3.8219 25.1252L29.872 34.68 24.3595 59.4892 28.0346 35.329l0.1468-0.965-0.5413 0.8116-13.561 20.3309 12.1546-21.2011 0.4854-0.8468-0.7979 0.5612L5.9315 48.079 24.9241 32.7003l0.7586-0.6142-0.9469 0.235-23.7185 5.8888 23.2654-7.4794 0.9293-0.2987L0 27.2319l25.3707 1.4874-0.8581-0.4642L3.0171 16.6278 26.1373 27.1797 9.6612 7.8297zM28.471 26.3835l-1.2118 0.7503-0.859 1.1374-0.39 1.3709 0.1315 1.4193 0.6353 1.2759 1.0533 0.9602 1.3291 0.5149h1.4253l1.329-0.5149 1.0534-0.9602 0.6353-1.2759 0.1315-1.4193-0.3901-1.3709-0.8589-1.1374-1.2118-0.7503-1.4011-0.2619z" fill-rule="evenodd" />
        </symbol>
        <symbol id="star_yellow" viewBox="0 0 13 13" fill="none">
            <path fill="var(--color1, #eea10c)" d="M5.5323 0.691c0.2994-0.9213 1.6028-0.9213 1.9021 0l0.845 2.6008c0.1339 0.412 0.5178 0.691 0.9511 0.691l2.7346 0c0.9687 0 1.3715 1.2396 0.5878 1.809l-2.2124 1.6074c-0.3505 0.2546-0.4971 0.706-0.3633 1.118l0.845 2.6008c0.2994 0.9213-0.7551 1.6875-1.5388 1.1181l-2.2124-1.6074c-0.3505-0.2547-0.8251-0.2547-1.1756 0l-2.2124 1.6074c-0.7837 0.5694-1.8382-0.1968-1.5388-1.1181l0.845-2.6008c0.1339-0.412-0.0127-0.8634-0.3632-1.118L0.4138 5.7918c-0.7837-0.5694-0.3809-1.809 0.5878-1.809l2.7346 0c0.4333 0 0.8172-0.279 0.9511-0.691z" />
        </symbol>
        <symbol id="star_white" viewBox="0 0 19 18" fill="none">
            <path fill="var(--color0, #f4f4f4)" fill-opacity="0.2" d="M8.3859 0.691c0.2993-0.9213 1.6027-0.9213 1.9021 0l1.5186 4.6737c0.1338 0.412 0.5178 0.691 0.951 0.691l4.9143 0c0.9687 0 1.3715 1.2396 0.5878 1.809l-3.9757 2.8886c-0.3505 0.2546-0.4972 0.706-0.3633 1.118l1.5186 4.6738c0.2993 0.9213-0.7551 1.6874-1.5389 1.118l-3.9757-2.8885c-0.3505-0.2547-0.8251-0.2547-1.1756 0l-3.9757 2.8885c-0.7837 0.5694-1.8382-0.1967-1.5389-1.118l1.5185-4.6738c0.1339-0.412-0.0127-0.8634-0.3632-1.118L0.4141 7.8647c-0.7837-0.5694-0.3809-1.809 0.5878-1.809l4.9143 0c0.4332 0 0.8172-0.279 0.9511-0.691z" />
        </symbol>
        <symbol id="socials_ligh_bg_youtube" viewBox="0 0 44 44" fill="none">
            <rect stroke="currentColor" stroke-opacity="0.1" width="43" height="43" rx="9.5" x="0.5" y="0.5" />
            <path fill="currentColor" clip-rule="evenodd" d="M29.2104 13.2499c-1.1901-0.07-3.6401-0.14-7.35-0.14h-0.4901c-3.57 0-5.9499 0.07-7.1399 0.21-1.61 0.14-2.7301 0.56-3.3601 1.12-0.56 0.49-0.9799 1.4-1.1199 2.59-0.07 0.77-0.1401 2.38-0.1401 4.83l0 0.35c0 2.31 0.0699 3.92 0.2099 4.69 0.21 1.12 0.5601 1.96 1.2601 2.45 0.7 0.56 1.89 0.91 3.57 1.05 1.19 0.07 3.64 0.14 7.35 0.14h0.49c3.57 0 5.95-0.07 7.14-0.21 1.61-0.14 2.73-0.56 3.36-1.12 0.56-0.49 0.9799-1.4 1.1199-2.59 0.07-0.77 0.1401-2.38 0.1401-4.83v-0.35c0-2.31-0.07-3.92-0.21-4.69-0.21-1.12-0.56-1.96-1.26-2.45-0.7-0.56-1.89-0.91-3.57-1.05zM26.4804 21.8599l-7.7 4.62v-9.24z" fill-rule="evenodd" />
        </symbol>
        <symbol id="socials_ligh_bg_youtube_hover" viewBox="0 0 44 44" fill="none">
            <rect fill="var(--color2, #242424)" fill-opacity="0.8" width="44" height="44" rx="10" />
            <rect stroke="var(--color2, #242424)" stroke-opacity="0.1" width="43" height="43" rx="9.5" x="0.5" y="0.5" />
            <path fill="var(--color0, #f4f4f4)" clip-rule="evenodd" d="M29.2104 13.2499c-1.1901-0.07-3.6401-0.14-7.35-0.14h-0.4901c-3.57 0-5.9499 0.07-7.1399 0.21-1.61 0.14-2.7301 0.56-3.3601 1.12-0.56 0.49-0.9799 1.4-1.1199 2.59-0.07 0.77-0.1401 2.38-0.1401 4.83l0 0.35c0 2.31 0.0699 3.92 0.2099 4.69 0.21 1.12 0.5601 1.96 1.2601 2.45 0.7 0.56 1.89 0.91 3.57 1.05 1.19 0.07 3.64 0.14 7.35 0.14h0.49c3.57 0 5.95-0.07 7.14-0.21 1.61-0.14 2.73-0.56 3.36-1.12 0.56-0.49 0.9799-1.4 1.1199-2.59 0.07-0.77 0.1401-2.38 0.1401-4.83v-0.35c0-2.31-0.07-3.92-0.21-4.69-0.21-1.12-0.56-1.96-1.26-2.45-0.7-0.56-1.89-0.91-3.57-1.05zM26.4804 21.8599l-7.7 4.62v-9.24z" fill-rule="evenodd" />
        </symbol>
        <symbol id="socials_ligh_bg_instagram" viewBox="0 0 44 44" fill="none">
            <rect stroke="currentColor" stroke-opacity="0.1" width="43" height="43" rx="9.5" x="0.5" y="0.5" />
            <g opacity="0.8" fill="currentColor">
                <path d="M33.1277 17.4115c-0.0137-0.94-0.1879-1.8727-0.5212-2.7519-0.5834-1.5013-1.7713-2.6885-3.2752-3.2697-0.8695-0.3266-1.7887-0.5017-2.7191-0.5216C25.4155 10.815 25.0361 10.8 21.9986 10.8c-3.0376 0-3.427 0-4.6149 0.0683-0.9292 0.0199-1.8484 0.195-2.7179 0.5216-1.5038 0.5812-2.693 1.7684-3.2751 3.2697-0.3272 0.8681-0.5038 1.7858-0.5212 2.7134-0.0535 1.1959-0.0697 1.5747-0.0697 4.6072s0 3.42 0.0697 4.6071c0.0186 0.9289 0.194 1.8454 0.5212 2.7159 0.5833 1.5001 1.7713 2.6873 3.2764 3.2685 0.8657 0.3378 1.7849 0.529 2.7179 0.5588 1.1978 0.0534 1.5772 0.0696 4.6148 0.0696s3.4269 0 4.6148-0.0696c0.9292-0.0186 1.8485-0.1937 2.7192-0.5203 1.5039-0.5824 2.6918-1.7696 3.2752-3.2697 0.3271-0.8693 0.5025-1.7858 0.5211-2.7159 0.0535-1.1946 0.0697-1.5734 0.0697-4.6072-25e-4-3.0325-25e-4-3.4175-0.0721-4.6059zM21.9911 27.7149c-3.1769 0-5.7505-2.5693-5.7505-5.7409s2.5736-5.741 5.7505-5.741c3.1744 0 5.7505 2.5694 5.7505 5.741s-2.5761 5.7409-5.7505 5.7409zM27.9705 17.3594c-0.7426 0-1.3409-0.5986-1.3409-1.3387 0-0.7402 0.5983-1.3387 1.3409-1.3387 0.7401 0 1.3397 0.5985 1.3397 1.3387 0 0.7401-0.5996 1.3387-1.3397 1.3387z" />
                <path d="M21.9928 25.4789c1.9349 0 3.5035-1.5685 3.5035-3.5035 0-1.9349-1.5686-3.5035-3.5035-3.5035-1.935 0-3.5035 1.5686-3.5035 3.5035 0 1.935 1.5685 3.5035 3.5035 3.5035z" />
            </g>
        </symbol>
        <symbol id="socials_ligh_bg_instagram_hover" viewBox="0 0 44 44" fill="var(--color0, #f4f4f4)">
            <rect fill="var(--color2, #242424)" fill-opacity="0.8" width="44" height="44" rx="10" />
            <rect stroke="var(--color2, #242424)" stroke-opacity="0.1" fill="none" width="43" height="43" rx="9.5" x="0.5" y="0.5" />
            <path d="M33.1277 17.4115c-0.0137-0.94-0.1879-1.8727-0.5212-2.7519-0.5834-1.5013-1.7713-2.6885-3.2752-3.2697-0.8695-0.3266-1.7887-0.5017-2.7191-0.5216C25.4155 10.815 25.0361 10.8 21.9986 10.8c-3.0376 0-3.427 0-4.6149 0.0683-0.9292 0.0199-1.8484 0.195-2.7179 0.5216-1.5038 0.5812-2.693 1.7684-3.2751 3.2697-0.3272 0.8681-0.5038 1.7858-0.5212 2.7134-0.0535 1.1959-0.0697 1.5747-0.0697 4.6072s0 3.42 0.0697 4.6071c0.0186 0.9289 0.194 1.8454 0.5212 2.7159 0.5833 1.5001 1.7713 2.6873 3.2764 3.2685 0.8657 0.3378 1.7849 0.529 2.7179 0.5588 1.1978 0.0534 1.5772 0.0696 4.6148 0.0696s3.4269 0 4.6148-0.0696c0.9292-0.0186 1.8485-0.1937 2.7192-0.5203 1.5039-0.5824 2.6918-1.7696 3.2752-3.2697 0.3271-0.8693 0.5025-1.7858 0.5211-2.7159 0.0535-1.1946 0.0697-1.5734 0.0697-4.6072-25e-4-3.0325-25e-4-3.4175-0.0721-4.6059zM21.9911 27.7149c-3.1769 0-5.7505-2.5693-5.7505-5.7409s2.5736-5.741 5.7505-5.741c3.1744 0 5.7505 2.5694 5.7505 5.741s-2.5761 5.7409-5.7505 5.7409zM27.9705 17.3594c-0.7426 0-1.3409-0.5986-1.3409-1.3387 0-0.7402 0.5983-1.3387 1.3409-1.3387 0.7401 0 1.3397 0.5985 1.3397 1.3387 0 0.7401-0.5996 1.3387-1.3397 1.3387z" />
            <path d="M21.9928 25.4789c1.9349 0 3.5035-1.5685 3.5035-3.5035 0-1.9349-1.5686-3.5035-3.5035-3.5035-1.935 0-3.5035 1.5686-3.5035 3.5035 0 1.935 1.5685 3.5035 3.5035 3.5035z" />
        </symbol>
        <symbol id="socials_ligh_bg_facebook" viewBox="0 0 44 44" fill="none">
            <rect stroke="currentColor" stroke-opacity="0.1" width="43" height="43" rx="9.5" x="0.5" y="0.5" />
            <path fill="currentColor" d="M25.0804 12.0601c0.21 0 0.42 0 0.84 0v3.15c-0.21 0-0.63 0-1.05 0s-0.84 0-1.05 0.21-0.21 0.42-0.21 0.91c0 0.42 0 0.7 0 1.12h2.31v2.66h-2.31v11.55h-3.57v-11.62h-1.89v-2.66h1.89v-0.91c0-1.54 0.21-2.66 0.63-3.15 0.63-0.91 1.89-1.33 3.78-1.33 0.21 0.07 0.42 0.07 0.63 0.07z" />
        </symbol>
        <symbol id="socials_ligh_bg_facebook_hover" viewBox="0 0 44 44" fill="none">
            <rect fill="var(--color2, #242424)" fill-opacity="0.8" width="44" height="44" rx="10" />
            <rect stroke="var(--color2, #242424)" stroke-opacity="0.1" width="43" height="43" rx="9.5" x="0.5" y="0.5" />
            <path fill="var(--color0, #f4f4f4)" d="M25.0804 12.0601c0.21 0 0.42 0 0.84 0v3.15c-0.21 0-0.63 0-1.05 0s-0.84 0-1.05 0.21-0.21 0.42-0.21 0.91c0 0.42 0 0.7 0 1.12h2.31v2.66h-2.31v11.55h-3.57v-11.62h-1.89v-2.66h1.89v-0.91c0-1.54 0.21-2.66 0.63-3.15 0.63-0.91 1.89-1.33 3.78-1.33 0.21 0.07 0.42 0.07 0.63 0.07z" />
        </symbol>
        <symbol id="socials_dark_bg_youtube" viewBox="0 0 44 44" fill="none">
            <rect stroke="var(--color0, #f4f4f4)" stroke-opacity="0.1" width="43" height="43" rx="9.5" x="0.5" y="0.5" />
            <path fill="var(--color0, #f4f4f4)" clip-rule="evenodd" d="M29.2104 13.2499c-1.1901-0.07-3.6401-0.14-7.35-0.14h-0.4901c-3.57 0-5.9499 0.07-7.1399 0.21-1.61 0.14-2.7301 0.56-3.3601 1.12-0.56 0.49-0.9799 1.4-1.1199 2.59-0.07 0.77-0.1401 2.38-0.1401 4.83l0 0.35c0 2.31 0.0699 3.92 0.2099 4.69 0.21 1.12 0.5601 1.96 1.2601 2.45 0.7 0.56 1.89 0.91 3.57 1.05 1.19 0.07 3.64 0.14 7.35 0.14h0.49c3.57 0 5.95-0.07 7.14-0.21 1.61-0.14 2.73-0.56 3.36-1.12 0.56-0.49 0.9799-1.4 1.1199-2.59 0.07-0.77 0.1401-2.38 0.1401-4.83v-0.35c0-2.31-0.07-3.92-0.21-4.69-0.21-1.12-0.56-1.96-1.26-2.45-0.7-0.56-1.89-0.91-3.57-1.05zM26.4804 21.8599l-7.7 4.62v-9.24z" fill-rule="evenodd" />
        </symbol>
        <symbol id="socials_dark_bg_youtube_hover" viewBox="0 0 44 44" fill="none">
            <rect fill="var(--color0, #f4f4f4)" width="44" height="44" rx="10" />
            <rect stroke="var(--color0, #f4f4f4)" stroke-opacity="0.1" width="43" height="43" rx="9.5" x="0.5" y="0.5" />
            <path fill="var(--color2, #242424)" clip-rule="evenodd" d="M29.2104 13.2499c-1.1901-0.07-3.6401-0.14-7.35-0.14h-0.4901c-3.57 0-5.9499 0.07-7.1399 0.21-1.61 0.14-2.7301 0.56-3.3601 1.12-0.56 0.49-0.9799 1.4-1.1199 2.59-0.07 0.77-0.1401 2.38-0.1401 4.83l0 0.35c0 2.31 0.0699 3.92 0.2099 4.69 0.21 1.12 0.5601 1.96 1.2601 2.45 0.7 0.56 1.89 0.91 3.57 1.05 1.19 0.07 3.64 0.14 7.35 0.14h0.49c3.57 0 5.95-0.07 7.14-0.21 1.61-0.14 2.73-0.56 3.36-1.12 0.56-0.49 0.9799-1.4 1.1199-2.59 0.07-0.77 0.1401-2.38 0.1401-4.83v-0.35c0-2.31-0.07-3.92-0.21-4.69-0.21-1.12-0.56-1.96-1.26-2.45-0.7-0.56-1.89-0.91-3.57-1.05zM26.4804 21.8599l-7.7 4.62v-9.24z" fill-rule="evenodd" />
        </symbol>
        <symbol id="socials_dark_bg_instagram" viewBox="0 0 44 44" fill="none">
            <rect stroke="var(--color0, #f4f4f4)" stroke-opacity="0.1" width="43" height="43" rx="9.5" x="0.5" y="0.5" />
            <g opacity="0.8" fill="var(--color0, #f4f4f4)">
                <path d="M33.1277 17.4115c-0.0137-0.94-0.1879-1.8727-0.5212-2.7519-0.5834-1.5013-1.7713-2.6885-3.2752-3.2697-0.8695-0.3266-1.7887-0.5017-2.7191-0.5216C25.4155 10.815 25.0361 10.8 21.9986 10.8c-3.0376 0-3.427 0-4.6149 0.0683-0.9292 0.0199-1.8484 0.195-2.7179 0.5216-1.5038 0.5812-2.693 1.7684-3.2751 3.2697-0.3272 0.8681-0.5038 1.7858-0.5212 2.7134-0.0535 1.1959-0.0697 1.5747-0.0697 4.6072s0 3.42 0.0697 4.6071c0.0186 0.9289 0.194 1.8454 0.5212 2.7159 0.5833 1.5001 1.7713 2.6873 3.2764 3.2685 0.8657 0.3378 1.7849 0.529 2.7179 0.5588 1.1978 0.0534 1.5772 0.0696 4.6148 0.0696s3.4269 0 4.6148-0.0696c0.9292-0.0186 1.8485-0.1937 2.7192-0.5203 1.5039-0.5824 2.6918-1.7696 3.2752-3.2697 0.3271-0.8693 0.5025-1.7858 0.5211-2.7159 0.0535-1.1946 0.0697-1.5734 0.0697-4.6072-25e-4-3.0325-25e-4-3.4175-0.0721-4.6059zM21.9911 27.7149c-3.1769 0-5.7505-2.5693-5.7505-5.7409s2.5736-5.741 5.7505-5.741c3.1744 0 5.7505 2.5694 5.7505 5.741s-2.5761 5.7409-5.7505 5.7409zM27.9705 17.3594c-0.7426 0-1.3409-0.5986-1.3409-1.3387 0-0.7402 0.5983-1.3387 1.3409-1.3387 0.7401 0 1.3397 0.5985 1.3397 1.3387 0 0.7401-0.5996 1.3387-1.3397 1.3387z" />
                <path d="M21.9928 25.4789c1.9349 0 3.5035-1.5685 3.5035-3.5035 0-1.9349-1.5686-3.5035-3.5035-3.5035-1.935 0-3.5035 1.5686-3.5035 3.5035 0 1.935 1.5685 3.5035 3.5035 3.5035z" />
            </g>
        </symbol>
        <symbol id="socials_dark_bg_instagram_hover" viewBox="0 0 44 44" fill="none">
            <rect fill="var(--color0, #f4f4f4)" width="44" height="44" rx="10" />
            <rect stroke="var(--color0, #f4f4f4)" stroke-opacity="0.1" width="43" height="43" rx="9.5" x="0.5" y="0.5" />
            <g opacity="0.8" fill="var(--color2, #242424)">
                <path d="M33.1277 17.4115c-0.0137-0.94-0.1879-1.8727-0.5212-2.7519-0.5834-1.5013-1.7713-2.6885-3.2752-3.2697-0.8695-0.3266-1.7887-0.5017-2.7191-0.5216C25.4155 10.815 25.0361 10.8 21.9986 10.8c-3.0376 0-3.427 0-4.6149 0.0683-0.9292 0.0199-1.8484 0.195-2.7179 0.5216-1.5038 0.5812-2.693 1.7684-3.2751 3.2697-0.3272 0.8681-0.5038 1.7858-0.5212 2.7134-0.0535 1.1959-0.0697 1.5747-0.0697 4.6072s0 3.42 0.0697 4.6071c0.0186 0.9289 0.194 1.8454 0.5212 2.7159 0.5833 1.5001 1.7713 2.6873 3.2764 3.2685 0.8657 0.3378 1.7849 0.529 2.7179 0.5588 1.1978 0.0534 1.5772 0.0696 4.6148 0.0696s3.4269 0 4.6148-0.0696c0.9292-0.0186 1.8485-0.1937 2.7192-0.5203 1.5039-0.5824 2.6918-1.7696 3.2752-3.2697 0.3271-0.8693 0.5025-1.7858 0.5211-2.7159 0.0535-1.1946 0.0697-1.5734 0.0697-4.6072-25e-4-3.0325-25e-4-3.4175-0.0721-4.6059zM21.9911 27.7149c-3.1769 0-5.7505-2.5693-5.7505-5.7409s2.5736-5.741 5.7505-5.741c3.1744 0 5.7505 2.5694 5.7505 5.741s-2.5761 5.7409-5.7505 5.7409zM27.9705 17.3594c-0.7426 0-1.3409-0.5986-1.3409-1.3387 0-0.7402 0.5983-1.3387 1.3409-1.3387 0.7401 0 1.3397 0.5985 1.3397 1.3387 0 0.7401-0.5996 1.3387-1.3397 1.3387z" />
                <path d="M21.9928 25.4789c1.9349 0 3.5035-1.5685 3.5035-3.5035 0-1.9349-1.5686-3.5035-3.5035-3.5035-1.935 0-3.5035 1.5686-3.5035 3.5035 0 1.935 1.5685 3.5035 3.5035 3.5035z" />
            </g>
        </symbol>
        <symbol id="socials_dark_bg_facebook" viewBox="0 0 44 44" fill="none">
            <rect stroke="var(--color0, #f4f4f4)" stroke-opacity="0.1" width="43" height="43" rx="9.5" x="0.5" y="0.5" />
            <path fill="var(--color0, #f4f4f4)" d="M25.0804 12.0601c0.21 0 0.42 0 0.84 0v3.15c-0.21 0-0.63 0-1.05 0s-0.84 0-1.05 0.21-0.21 0.42-0.21 0.91c0 0.42 0 0.7 0 1.12h2.31v2.66h-2.31v11.55h-3.57v-11.62h-1.89v-2.66h1.89v-0.91c0-1.54 0.21-2.66 0.63-3.15 0.63-0.91 1.89-1.33 3.78-1.33 0.21 0.07 0.42 0.07 0.63 0.07z" />
        </symbol>
        <symbol id="socials_dark_bg_facebook_hover" viewBox="0 0 44 44" fill="none">
            <rect fill="var(--color0, #f4f4f4)" width="44" height="44" rx="10" />
            <rect stroke="var(--color0, #f4f4f4)" stroke-opacity="0.1" width="43" height="43" rx="9.5" x="0.5" y="0.5" />
            <path fill="var(--color2, #242424)" d="M25.0804 12.0601c0.21 0 0.42 0 0.84 0v3.15c-0.21 0-0.63 0-1.05 0s-0.84 0-1.05 0.21-0.21 0.42-0.21 0.91c0 0.42 0 0.7 0 1.12h2.31v2.66h-2.31v11.55h-3.57v-11.62h-1.89v-2.66h1.89v-0.91c0-1.54 0.21-2.66 0.63-3.15 0.63-0.91 1.89-1.33 3.78-1.33 0.21 0.07 0.42 0.07 0.63 0.07z" />
        </symbol>
        <symbol id="search_symbol" viewBox="0 0 18 18" stroke-width="1.5" stroke="currentColor" stroke-linecap="round" stroke-linejoin="round" fill="none">
            <path d="M8.25 14.25c3.3137 0 6-2.6863 6-6s-2.6863-6-6-6-6 2.6863-6 6 2.6863 6 6 6z" />
            <path d="M15.7498 15.75l-3.2625-3.2625" />
        </symbol>
        <symbol id="running_figure_white" viewBox="0 0 18 20" fill="var(--color0, #f4f4f4)">
            <path d="M17.7293 5.907c-0.2682-0.313-0.7459-0.3542-1.0662-0.0932l-2.0994 1.7231-0.9654-2.3371c-0.0343-0.0878-0.0864-0.1614-0.1463-0.2264-0.1973-0.4288-0.5398-0.7971-1.012-1.0104-0.205-0.091-0.4167-0.1397-0.6284-0.1636-0.0466-0.0238-0.0887-0.0552-0.1419-0.0714L7.9754 2.7218c-0.2073-0.0552-0.4157-0.0195-0.5864 0.078C7.1862 2.867 7.0122 3.011 6.9291 3.22L5.538 6.7149c-0.1507 0.3801 0.0421 0.809 0.4323 0.9585 0.3879 0.1473 0.828-0.0423 0.9798-0.4235L8.125 4.2987l1.6826 0.457c-0.041 0.065-0.0854 0.1257-0.1186 0.195L7.532 9.5188C7.501 9.586 7.4844 9.6542 7.4622 9.7235l-2.6214 4.2942-4.387 1.4339c-0.4966 0.3628-0.6019 1.0462-0.235 1.5314 0.3691 0.4862 1.0707 0.5891 1.5662 0.2307l4.489-1.5108c0.1374-0.0975 0.2372-0.2253 0.3126-0.3629 0.0565-0.0584 0.1208-0.105 0.164-0.1776l1.5629-2.5602 2.7743 2.3101-2.9683 3.2685c-0.409 0.4505-0.368 1.1447 0.0953 1.5433 0.4622 0.4018 1.1705 0.3595 1.5817-0.0932l3.7043-4.0775c0.1153-0.1256 0.184-0.2708 0.2305-0.4224 0.0277-0.0823 0.0277-0.1678 0.0344-0.2534 0-0.0433 0.0166-0.0823 0.0133-0.1224-0.01-0.2989-0.1341-0.5891-0.3846-0.796l-2.5527-2.127c0.184-0.1712 0.3403-0.3748 0.4534-0.6141l1.6537-3.4992 0.5298 1.3786c0.0222 0.1224 0.0643 0.2426 0.153 0.3434 0.0798 0.0931 0.1818 0.1548 0.2904 0.1981 0.0111 55e-4 0.0244 65e-4 0.0377 98e-4 0.0687 0.0238 0.1385 0.0466 0.2106 0.0498 0.0853 76e-4 0.1718-32e-4 0.2593-0.0271 22e-4-1e-3 33e-4-1e-3 33e-4-1e-3 0.0233-55e-4 0.0466-11e-4 0.0699-0.0109 0.123-0.0455 0.2172-0.1224 0.2981-0.2122l3.0127-2.4986c0.3203-0.2631 0.1851-0.7288-0.0843-1.0418z" />
            <path d="M13.9191 4.1263c1.1662 0 2.1115-0.9237 2.1115-2.0632C16.0306 0.9237 15.0853 0 13.9191 0c-1.1661 0-2.1115 0.9237-2.1115 2.0631 0 1.1395 0.9454 2.0632 2.1115 2.0632z" />
        </symbol>
        <symbol id="running_figure_black" viewBox="0 0 20 20" fill="currentColor">
            <path d="M18.5293 5.9067c-0.2621-0.313-0.7289-0.3541-1.0419-0.0931l-2.0512 1.7231-0.9433-2.3372c-0.0336-0.0877-0.0845-0.1613-0.143-0.2263-0.1927-0.4289-0.5274-0.7971-0.9888-1.0105-0.2003-0.091-0.4072-0.1397-0.614-0.1635-0.0455-0.0238-0.0867-0.0552-0.1387-0.0715L8.9988 2.7216c-0.2026-0.0552-0.4062-0.0195-0.573 0.078-0.1982 0.0671-0.3683 0.2112-0.4495 0.4202L6.6172 6.7147c-0.1473 0.3801 0.0412 0.809 0.4224 0.9584 0.3791 0.1473 0.809-0.0422 0.9574-0.4234l1.148-2.9512 1.644 0.457c-0.0401 0.065-0.0834 0.1256-0.1159 0.1949L8.5656 9.5186C8.5352 9.5857 8.519 9.654 8.4973 9.7233L5.936 14.0174 1.6494 15.4513c-0.4851 0.3628-0.588 1.0462-0.2296 1.5314 0.3607 0.4863 1.0462 0.5892 1.5303 0.2307l4.3862-1.5108c0.1343-0.0975 0.2318-0.2253 0.3054-0.3628 0.0552-0.0585 0.118-0.1051 0.1602-0.1776l1.5271-2.5603 2.7108 2.3101-2.9003 3.2685c-0.3997 0.4506-0.3596 1.1448 0.0931 1.5433 0.4516 0.4018 1.1437 0.3596 1.5455-0.0931l3.6194-4.0776c0.1126-0.1256 0.1798-0.2707 0.2253-0.4223 0.027-0.0824 0.027-0.1679 0.0335-0.2535 0-0.0433 0.0163-0.0823 0.013-0.1224-97e-4-0.2989-0.131-0.5891-0.3758-0.796l-2.4942-2.127c0.1798-0.1711 0.3325-0.3747 0.443-0.6141l1.6158-3.4992 0.5177 1.3787c0.0217 0.1224 0.0628 0.2426 0.1495 0.3433 0.078 0.0931 0.1776 0.1549 0.2837 0.1982 0.0109 54e-4 0.0239 65e-4 0.0369 97e-4 0.0671 0.0239 0.1353 0.0466 0.2057 0.0499 0.0834 75e-4 0.1679-33e-4 0.2534-0.0271 22e-4-11e-4 33e-4-11e-4 33e-4-11e-4 0.0227-54e-4 0.0455-11e-4 0.0682-0.0108 0.1202-0.0455 0.2123-0.1224 0.2914-0.2123l2.9436-2.4985c0.313-0.2632 0.1808-0.7289-0.0823-1.0419z" />
            <path d="M14.8063 4.1263c1.1394 0 2.0631-0.9237 2.0631-2.0632S15.9457 0 14.8063 0s-2.0631 0.9237-2.0631 2.0631 0.9237 2.0632 2.0631 2.0632z" />
        </symbol>
        <symbol id="invertedcommas" viewBox="0 0 24 24" fill="none">
            <path fill="var(--color0, #f4f4f4)" d="M6.1508 13.1014c1.1593-0.4594 2.089-0.3391 2.789 0.3609 0.7 0.7 0.9078 1.8156 0.6235 3.3469-0.2188 1.1375-0.7 2.0125-1.4438 2.625-0.7219 0.5906-1.564 0.8859-2.5265 0.8859-1.3125 0-2.2203-0.5031-2.7235-1.5094-0.5031-1.0281-0.6015-2.4062-0.2953-4.1343 0.175-0.9407 0.4594-1.8922 0.8531-2.8547 0.3938-0.9625 0.9188-1.9469 1.575-2.9531 0.6563-1.0063 1.5094-1.8813 2.5594-2.625 1.05-0.7438 2.2094-1.225 3.4781-1.4438l-0.3281 3.4781C9.6398 8.4967 8.6883 9.0545 7.857 9.9514c-0.8312 0.875-1.4 1.925-1.7062 3.15zM16.0273 13.1014c1.1594-0.4594 2.0891-0.3391 2.7891 0.3609s0.9078 1.8156 0.6234 3.3469c-0.2187 1.1375-0.7 2.0125-1.4437 2.625-0.7219 0.5906-1.5641 0.8859-2.5266 0.8859-1.3125 0-2.2203-0.5031-2.7234-1.5094-0.5031-1.0281-0.6016-2.4062-0.2953-4.1343 0.175-0.9407 0.4594-1.8922 0.8531-2.8547s0.9187-1.9469 1.575-2.9531 1.5094-1.8813 2.5594-2.625c1.05-0.7438 2.2094-1.225 3.4781-1.4438l-0.3281 3.4781c-1.0719 0.2188-2.0235 0.7766-2.8547 1.6735-0.8313 0.875-1.4 1.925-1.7063 3.15z" />
        </symbol>
        <symbol id="dumbell_white" viewBox="0 0 20 20" fill="none">
            <path fill="var(--color0, #f4f4f4)" d="M4.6 5.7143l-1.2 0c-0.3325 0-0.6 0.2866-0.6 0.6428v2.7858l-0.6 0c-0.11 0-0.2 0.0964-0.2 0.2142v1.2858c0 0.1178 0.09 0.2142 0.2 0.2142h0.6v2.7858c0 0.3562 0.2675 0.6428 0.6 0.6428h1.2c0.3325 0 0.6-0.2866 0.6-0.6428V6.3571c0-0.3562-0.2675-0.6428-0.6-0.6428zM17.8 9.1429l-0.6 0V6.3571c0-0.3562-0.2675-0.6428-0.6-0.6428l-1.2 0c-0.3325 0-0.6 0.2866-0.6 0.6428v7.2858c0 0.3562 0.2675 0.6428 0.6 0.6428h1.2c0.3325 0 0.6-0.2866 0.6-0.6428v-2.7858h0.6c0.11 0 0.2-0.0964 0.2-0.2142V9.3571c0-0.1178-0.09-0.2142-0.2-0.2142zM13.4 4h-1.2c-0.3325 0-0.6 0.2866-0.6 0.6429v4.5l-3.2 0v-4.5C8.4 4.2866 8.1325 4 7.8 4H6.6C6.2675 4 6 4.2866 6 4.6429v10.7142C6 15.7134 6.2675 16 6.6 16h1.2c0.3325 0 0.6-0.2866 0.6-0.6429v-4.5h3.2v4.5C11.6 15.7134 11.8675 16 12.2 16h1.2c0.3325 0 0.6-0.2866 0.6-0.6429V4.6429C14 4.2866 13.7325 4 13.4 4z" />
        </symbol>
        <symbol id="dumbell_black" viewBox="0 0 20 20" fill="none">
            <path fill="currentColor" d="M4.6 5.7143l-1.2 0c-0.3325 0-0.6 0.2866-0.6 0.6428v2.7858l-0.6 0c-0.11 0-0.2 0.0964-0.2 0.2142v1.2858c0 0.1178 0.09 0.2142 0.2 0.2142h0.6v2.7858c0 0.3562 0.2675 0.6428 0.6 0.6428h1.2c0.3325 0 0.6-0.2866 0.6-0.6428V6.3571c0-0.3562-0.2675-0.6428-0.6-0.6428zM17.8 9.1429l-0.6 0V6.3571c0-0.3562-0.2675-0.6428-0.6-0.6428l-1.2 0c-0.3325 0-0.6 0.2866-0.6 0.6428v7.2858c0 0.3562 0.2675 0.6428 0.6 0.6428h1.2c0.3325 0 0.6-0.2866 0.6-0.6428v-2.7858h0.6c0.11 0 0.2-0.0964 0.2-0.2142V9.3571c0-0.1178-0.09-0.2142-0.2-0.2142zM13.4 4h-1.2c-0.3325 0-0.6 0.2866-0.6 0.6429v4.5l-3.2 0v-4.5C8.4 4.2866 8.1325 4 7.8 4H6.6C6.2675 4 6 4.2866 6 4.6429v10.7142C6 15.7134 6.2675 16 6.6 16h1.2c0.3325 0 0.6-0.2866 0.6-0.6429v-4.5h3.2v4.5C11.6 15.7134 11.8675 16 12.2 16h1.2c0.3325 0 0.6-0.2866 0.6-0.6429V4.6429C14 4.2866 13.7325 4 13.4 4z" />
        </symbol>
        <symbol id="discard_sign" viewBox="0 0 18 18" fill="none">
            <path stroke-width="1.5" stroke="currentColor" stroke-linecap="round" d="M12.75 5.25l-7.5 7.5M5.25 5.25l7.5 7.5" />
        </symbol>
        <symbol id="arrow_to_the_top_small" viewBox="0 0 100 100" fill="none">
            <circle fill="var(--color2, #242424)" cx="50" cy="50" r="50" />
            <path stroke-width="0.3" stroke="var(--color0, #f4f4f4)" fill="var(--color0, #f4f4f4)" clip-rule="evenodd" d="M51.6192 37.4778v25.5281h-2.7159V37.4778L36.1392 50.2419l-1.9205-1.9205 16.0425-16.0425 16.0425 16.0425-1.9204 1.9205z" fill-rule="evenodd" />
        </symbol>
        <symbol id="arrow_to_the_top_large" viewBox="0 0 40 40" fill="none">
            <circle fill="var(--color2, #242424)" cx="20" cy="20" r="20" />
            <path stroke-width="0.3" stroke="var(--color0, #f4f4f4)" fill="var(--color0, #f4f4f4)" clip-rule="evenodd" d="M20.6477 14.9912v10.2112h-1.0864V14.9912l-5.1056 5.1056-0.7682-0.7682 6.417-6.417 6.417 6.417-0.7682 0.7682z" fill-rule="evenodd" />
        </symbol>
        <symbol id="arrow_forward_till_end" viewBox="0 0 32 32" fill="currentColor">
            <rect stroke="currentColor" fill="none" transform="matrix(-1, 0, 0, 1, 31, 0)" width="31" height="31" rx="15.5" x="-0.5" y="0.5" />
            <path d="M21.1671 16.5917c0.0781-0.0775 0.1401-0.1696 0.1824-0.2712C21.3918 16.219 21.4136 16.11 21.4136 16s-0.0218-0.2189-0.0641-0.3205c-0.0423-0.1015-0.1043-0.1937-0.1824-0.2711l-3.825-3.8167c-0.0781-0.0775-0.1401-0.1697-0.1824-0.2712C17.1174 11.2189 17.0956 11.11 17.0956 11s0.0218-0.2189 0.0641-0.3205c0.0423-0.1015 0.1043-0.1937 0.1824-0.2712 0.1561-0.1552 0.3674-0.2423 0.5875-0.2423 0.2202 0 0.4314 0.0871 0.5875 0.2423l3.825 3.8251c0.4682 0.4687 0.7311 1.1041 0.7311 1.7666s-0.2629 1.2979-0.7311 1.7667l-3.825 3.825c-0.1552 0.154-0.3647 0.2407-0.5833 0.2417-0.1097 6e-4-0.2184-0.0204-0.3199-0.0619-0.1016-0.0415-0.1939-0.1026-0.2718-0.1798-0.0781-0.0775-0.1401-0.1696-0.1824-0.2712C17.1174 21.219 17.0956 21.11 17.0956 21s0.0218-0.2189 0.0641-0.3205c0.0423-0.1015 0.1043-0.1937 0.1824-0.2711z" />
            <path d="M14.1671 16.5917c0.0781-0.0775 0.1401-0.1696 0.1824-0.2712C14.3918 16.219 14.4136 16.11 14.4136 16s-0.0218-0.2189-0.0641-0.3205c-0.0423-0.1015-0.1043-0.1937-0.1824-0.2711l-3.825-3.8167c-0.0781-0.0775-0.1401-0.1697-0.1824-0.2712C10.1174 11.2189 10.0956 11.11 10.0956 11s0.0218-0.2189 0.0641-0.3205c0.0423-0.1015 0.1043-0.1937 0.1824-0.2712 0.1561-0.1552 0.3674-0.2423 0.5875-0.2423 0.2202 0 0.4314 0.0871 0.5875 0.2423l3.825 3.8251c0.4682 0.4687 0.7311 1.1041 0.7311 1.7666s-0.2629 1.2979-0.7311 1.7667l-3.825 3.825c-0.1552 0.154-0.3647 0.2407-0.5833 0.2417-0.1097 6e-4-0.2184-0.0204-0.3199-0.0619-0.1016-0.0415-0.1939-0.1026-0.2718-0.1798-0.0781-0.0775-0.1401-0.1696-0.1824-0.2712C10.1174 21.219 10.0956 21.11 10.0956 21s0.0218-0.2189 0.0641-0.3205c0.0423-0.1015 0.1043-0.1937 0.1824-0.2711z" />
        </symbol>
        <symbol id="arrow_forward_one_page" viewBox="0 0 32 32" fill="none">
            <rect stroke="currentColor" transform="matrix(-1, 0, 0, 1, 31, 0)" width="31" height="31" rx="15.5" x="-0.5" y="0.5" />
            <path fill="currentColor" d="M17.1671 16.5917c0.0781-0.0775 0.1401-0.1696 0.1824-0.2712C17.3918 16.219 17.4136 16.11 17.4136 16s-0.0218-0.2189-0.0641-0.3205c-0.0423-0.1015-0.1043-0.1937-0.1824-0.2711l-3.825-3.8167c-0.0781-0.0775-0.1401-0.1697-0.1824-0.2712C13.1174 11.2189 13.0956 11.11 13.0956 11s0.0218-0.2189 0.0641-0.3205c0.0423-0.1015 0.1043-0.1937 0.1824-0.2712 0.1561-0.1552 0.3674-0.2423 0.5875-0.2423 0.2202 0 0.4314 0.0871 0.5875 0.2423l3.825 3.8251c0.4682 0.4687 0.7311 1.1041 0.7311 1.7666s-0.2629 1.2979-0.7311 1.7667l-3.825 3.825c-0.1552 0.154-0.3647 0.2407-0.5833 0.2417-0.1097 6e-4-0.2184-0.0204-0.3199-0.0619-0.1016-0.0415-0.1939-0.1026-0.2718-0.1798-0.0781-0.0775-0.1401-0.1696-0.1824-0.2712C13.1174 21.219 13.0956 21.11 13.0956 21s0.0218-0.2189 0.0641-0.3205c0.0423-0.1015 0.1043-0.1937 0.1824-0.2711z" />
        </symbol>
        <symbol id="arrow_backward_till_start" viewBox="0 0 32 32" fill="currentColor" fill-opacity="0.5">
            <rect stroke="currentColor" stroke-opacity="0.1" fill="none" fill-opacity="1" width="31" height="31" rx="15.5" x="0.5" y="0.5" />
            <path d="M10.8329 16.5917c-0.0781-0.0775-0.1401-0.1696-0.1824-0.2712C10.6082 16.219 10.5864 16.11 10.5864 16s0.0218-0.2189 0.0641-0.3205c0.0423-0.1015 0.1043-0.1937 0.1824-0.2711l3.825-3.8167c0.0781-0.0775 0.1401-0.1697 0.1824-0.2712 0.0423-0.1016 0.0641-0.2105 0.0641-0.3205s-0.0218-0.2189-0.0641-0.3205c-0.0423-0.1015-0.1043-0.1937-0.1824-0.2712-0.1561-0.1552-0.3674-0.2423-0.5875-0.2423-0.2202 0-0.4314 0.0871-0.5875 0.2423l-3.825 3.8251C9.1897 14.7021 8.9268 15.3375 8.9268 16s0.2629 1.2979 0.7311 1.7667l3.825 3.825c0.1552 0.154 0.3647 0.2407 0.5833 0.2417 0.1097 6e-4 0.2184-0.0204 0.3199-0.0619 0.1016-0.0415 0.1939-0.1026 0.2718-0.1798 0.0781-0.0775 0.1401-0.1696 0.1824-0.2712C14.8826 21.219 14.9044 21.11 14.9044 21s-0.0218-0.2189-0.0641-0.3205c-0.0423-0.1015-0.1043-0.1937-0.1824-0.2711z" />
            <path d="M17.8329 16.5917c-0.0781-0.0775-0.1401-0.1696-0.1824-0.2712C17.6082 16.219 17.5864 16.11 17.5864 16s0.0218-0.2189 0.0641-0.3205c0.0423-0.1015 0.1043-0.1937 0.1824-0.2711l3.825-3.8167c0.0781-0.0775 0.1401-0.1697 0.1824-0.2712 0.0423-0.1016 0.0641-0.2105 0.0641-0.3205s-0.0218-0.2189-0.0641-0.3205c-0.0423-0.1015-0.1043-0.1937-0.1824-0.2712-0.1561-0.1552-0.3674-0.2423-0.5875-0.2423-0.2202 0-0.4314 0.0871-0.5875 0.2423l-3.825 3.8251c-0.4682 0.4687-0.7311 1.1041-0.7311 1.7666s0.2629 1.2979 0.7311 1.7667l3.825 3.825c0.1552 0.154 0.3647 0.2407 0.5833 0.2417 0.1097 6e-4 0.2184-0.0204 0.3199-0.0619 0.1016-0.0415 0.1939-0.1026 0.2718-0.1798 0.0781-0.0775 0.1401-0.1696 0.1824-0.2712C21.8826 21.219 21.9044 21.11 21.9044 21s-0.0218-0.2189-0.0641-0.3205c-0.0423-0.1015-0.1043-0.1937-0.1824-0.2711z" />
        </symbol>
        <symbol id="arrow_backward_one_page" viewBox="0 0 32 32" fill="none">
            <rect stroke="currentColor" stroke-opacity="0.1" width="31" height="31" rx="15.5" x="0.5" y="0.5" />
            <path fill="currentColor" fill-opacity="0.5" d="M14.8329 16.5917c-0.0781-0.0775-0.1401-0.1696-0.1824-0.2712C14.6082 16.219 14.5864 16.11 14.5864 16s0.0218-0.2189 0.0641-0.3205c0.0423-0.1015 0.1043-0.1937 0.1824-0.2711l3.825-3.8167c0.0781-0.0775 0.1401-0.1697 0.1824-0.2712 0.0423-0.1016 0.0641-0.2105 0.0641-0.3205s-0.0218-0.2189-0.0641-0.3205c-0.0423-0.1015-0.1043-0.1937-0.1824-0.2712-0.1561-0.1552-0.3674-0.2423-0.5875-0.2423-0.2202 0-0.4314 0.0871-0.5875 0.2423l-3.825 3.8251c-0.4682 0.4687-0.7311 1.1041-0.7311 1.7666s0.2629 1.2979 0.7311 1.7667l3.825 3.825c0.1552 0.154 0.3647 0.2407 0.5833 0.2417 0.1097 6e-4 0.2184-0.0204 0.3199-0.0619 0.1016-0.0415 0.1939-0.1026 0.2718-0.1798 0.0781-0.0775 0.1401-0.1696 0.1824-0.2712C18.8826 21.219 18.9044 21.11 18.9044 21s-0.0218-0.2189-0.0641-0.3205c-0.0423-0.1015-0.1043-0.1937-0.1824-0.2711z" />
        </symbol>
    </defs>
</svg>